<svg id="Capa_1" data-name="Capa 1" xmlns="http://www.w3.org/2000/svg" viewBox="0 0 548.67 336.45"><defs><style>.cls-1{fill:#1d1d1b;}.cls-2{fill:#13427c;}</style></defs><title>cableUnet</title><path class="cls-1" d="M207.16,315.31c1.07,3,4.23,4.82,10.09,4.82,6.53,0,9-2.08,9-4.56s-1.78-4.16-9.63-5.4c-7.54-1.2-10.8-2.76-10.8-6.05,0-3,3.41-5.79,11.06-5.79,7.85,0,11.16,3.06,11.62,5.83h-2.86c-.81-2.44-3.31-4.2-8.92-4.2-5.14,0-8,1.53-8,4.07s2.35,3.48,8.92,4.52c10,1.59,11.52,4.16,11.52,6.89,0,3.35-3.82,6.25-12.08,6.25-8.92,0-12.18-3.32-12.84-6.38Z" transform="translate(-38.24 -105.6)"/><path class="cls-1" d="M241,313.56l-4.53,7.87h-2.81l13.1-22.77H250l13.66,22.77h-3L256,313.56Zm14.12-1.63c-4-6.77-6-10-6.73-11.55h0c-.86,1.73-3.16,5.76-6.37,11.55Z" transform="translate(-38.24 -105.6)"/><path class="cls-1" d="M272.8,300.28h-12v-1.62h26.8v1.62h-12v21.15H272.8Z" transform="translate(-38.24 -105.6)"/><path class="cls-1" d="M313.88,310.24H295.69v9.56h19.93l-.41,1.63H292.94V298.66H314.8v1.62H295.69v8.33h18.19Z" transform="translate(-38.24 -105.6)"/><path class="cls-1" d="M322.65,298.66h2.75V319.8h19.16l-.51,1.63h-21.4Z" transform="translate(-38.24 -105.6)"/><path class="cls-1" d="M352.82,298.66v22.77h-2.75V298.66Z" transform="translate(-38.24 -105.6)"/><path class="cls-1" d="M370.45,300.28h-12v-1.62h26.8v1.62h-12v21.15h-2.8Z" transform="translate(-38.24 -105.6)"/><path class="cls-1" d="M390.23,313.56l-4.54,7.87h-2.8L396,298.66h3.26l13.66,22.77h-3l-4.64-7.87Zm14.11-1.63c-4-6.77-6-10-6.72-11.55h-.05c-.87,1.73-3.16,5.76-6.37,11.55Z" transform="translate(-38.24 -105.6)"/><path class="cls-1" d="M419.23,298.66H422V319.8h19.16l-.51,1.63h-21.4Z" transform="translate(-38.24 -105.6)"/><path class="cls-2" d="M333.1,233.6V232h19.17v1.59h-2a5.54,5.54,0,0,0-4.9,2.85q-.82,1.26-.83,6.14v23.32q0,8.49-1.68,13.49a16.48,16.48,0,0,1-2.38,4.5,15.2,15.2,0,0,1-3.95,3.64,20.37,20.37,0,0,1-5.58,2.47,26.63,26.63,0,0,1-7.32.92,33,33,0,0,1-7.83-.82A18,18,0,0,1,310,287.7a14.58,14.58,0,0,1-3.94-3.8,19.59,19.59,0,0,1-2.51-5q-1.32-3.86-1.32-14.19V242.21a23.28,23.28,0,0,0-.33-4.34,6.22,6.22,0,0,0-1-2.62,3.57,3.57,0,0,0-1.82-1.3,8.8,8.8,0,0,0-2.6-.35h-2.09V232h23.47v1.59h-2.09a8.53,8.53,0,0,0-2.5.32,3.49,3.49,0,0,0-1.8,1.23,6.78,6.78,0,0,0-1.1,2.6,20.48,20.48,0,0,0-.39,4.46V267.3a56,56,0,0,0,.48,7.41,18.85,18.85,0,0,0,2,6.43,11.4,11.4,0,0,0,4.27,4.5,14.15,14.15,0,0,0,7.38,1.68,19,19,0,0,0,5.07-.67,18.67,18.67,0,0,0,4.45-1.8,14.43,14.43,0,0,0,3.5-2.76,10.86,10.86,0,0,0,2.21-3.51q1.56-3.74,1.55-13.05V242.21q0-5.31-1.13-6.71a5.59,5.59,0,0,0-4.6-1.9Z" transform="translate(-38.24 -105.6)"/><path class="cls-2" d="M352.09,232h14.7L400,275.22V242a21.67,21.67,0,0,0-.39-4.62,5.53,5.53,0,0,0-1.13-2.53,3.34,3.34,0,0,0-1.82-1.05,12.12,12.12,0,0,0-2.45-.22h-1.92V232h18.94v1.59h-2a11,11,0,0,0-2.51.25A3.2,3.2,0,0,0,405,235a6.06,6.06,0,0,0-1.08,2.54,22,22,0,0,0-.35,4.49v48.53h-1.44l-35.78-46.37v35.47a21.64,21.64,0,0,0,.39,4.66,5.89,5.89,0,0,0,1.1,2.5,3,3,0,0,0,1.8,1A14.75,14.75,0,0,0,372,288H374v1.58H355.08V288H357a10.94,10.94,0,0,0,2.51-.26,3.41,3.41,0,0,0,1.82-1.11,5.54,5.54,0,0,0,1.11-2.5,22,22,0,0,0,.36-4.5v-40c-.8-1-1.47-1.82-2-2.41a12.64,12.64,0,0,0-1.52-1.46,7.67,7.67,0,0,0-1.55-.95c-.56-.25-1.26-.53-2.09-.82a12.14,12.14,0,0,0-3.53-.38Z" transform="translate(-38.24 -105.6)"/><path class="cls-2" d="M429.51,235.18v22.75H441.4a14.42,14.42,0,0,0,4.24-.51,5.7,5.7,0,0,0,2.54-1.52,5.59,5.59,0,0,0,1.28-2.6,22.67,22.67,0,0,0,.48-3.74h1.49v20h-1.49a38.45,38.45,0,0,0-.69-4.12,5.92,5.92,0,0,0-1.25-2.63,4.81,4.81,0,0,0-2.42-1.39,17.2,17.2,0,0,0-4.18-.41H429.51v19c0,1.44,0,2.58.06,3.43a4,4,0,0,0,.48,1.93,1.94,1.94,0,0,0,1.31.85,13.4,13.4,0,0,0,2.63.19h9.2c1.55,0,2.87,0,3.94-.12a12.46,12.46,0,0,0,2.78-.51,6.9,6.9,0,0,0,2.06-1.05,16.85,16.85,0,0,0,1.91-1.67,32,32,0,0,0,5.08-7.92h1.61l-4.72,14.44H414V288H416a7.59,7.59,0,0,0,1.61-.19,8.27,8.27,0,0,0,1.59-.54,4.92,4.92,0,0,0,1.34-.92,3.08,3.08,0,0,0,.84-1.33,20.66,20.66,0,0,0,.48-5.58V242.09q0-5.52-1-6.78-1.44-1.71-4.84-1.71H414V232h41.81v12.61h-1a34,34,0,0,0-1.28-5,7,7,0,0,0-1.83-2.88,5.51,5.51,0,0,0-2.89-1.3,29.15,29.15,0,0,0-4.51-.29Z" transform="translate(-38.24 -105.6)"/><path class="cls-2" d="M509.86,232v13.56H509c-.44-3.63-1.44-6.2-3-7.7s-3.89-2.24-7-2.24h-7.64v44a21.28,21.28,0,0,0,.39,4.6,5.66,5.66,0,0,0,1.1,2.5,3.13,3.13,0,0,0,1.79,1,12.41,12.41,0,0,0,2.51.23H499v1.58H476V288h1.91a11,11,0,0,0,2.51-.26,3.29,3.29,0,0,0,1.79-1.11,6,6,0,0,0,1.1-2.5,20.39,20.39,0,0,0,.39-4.5v-44h-6.51a20,20,0,0,0-4.33.41,7.73,7.73,0,0,0-3.26,1.52,7.61,7.61,0,0,0-2.18,3,15.64,15.64,0,0,0-1,5h-1.5V232Z" transform="translate(-38.24 -105.6)"/><path class="cls-1" d="M159.49,231.11l1.19,18.52h-1.19q-2.37-8.32-6.69-12A15.61,15.61,0,0,0,142.39,234a16.82,16.82,0,0,0-7.28,1.58,15.13,15.13,0,0,0-5.73,4.89,25.16,25.16,0,0,0-3.75,8.28,44.69,44.69,0,0,0-1.36,11.75,36.19,36.19,0,0,0,1.27,9.89,22.08,22.08,0,0,0,3.73,7.59,16.82,16.82,0,0,0,6,4.85,18.66,18.66,0,0,0,8.18,1.71,17.32,17.32,0,0,0,8.81-2.28q3.78-2.1,8.41-9l1.18.78q-3.88,7.26-9,10.64a21.6,21.6,0,0,1-12.22,3.39,24.4,24.4,0,0,1-10-2,23.09,23.09,0,0,1-7.87-5.73,26.7,26.7,0,0,1-5.16-8.75,32,32,0,0,1-1.86-11.12,32.54,32.54,0,0,1,3.44-15,25.24,25.24,0,0,1,9.42-10.56,24.7,24.7,0,0,1,13.21-3.77A22.92,22.92,0,0,1,152.72,234a5.65,5.65,0,0,0,2.26.89,2.49,2.49,0,0,0,2.06-1.07,6.66,6.66,0,0,0,1.15-2.7Z" transform="translate(-38.24 -105.6)"/><path class="cls-1" d="M186.58,281.53c-1.81,1.44-3.26,2.59-4.37,3.45a13.9,13.9,0,0,1-2.35,1.59,9.77,9.77,0,0,1-4.34,1,7.74,7.74,0,0,1-3.3-.69,7.93,7.93,0,0,1-2.6-1.92,8.85,8.85,0,0,1-1.72-3,11.63,11.63,0,0,1-.62-3.89,10.46,10.46,0,0,1,.93-4.5,10.8,10.8,0,0,1,2.88-3.63,21,21,0,0,1,5-3q4.86-2.4,10.44-4.55V261a21.41,21.41,0,0,0-.42-4.62,7.7,7.7,0,0,0-1.27-3,4.61,4.61,0,0,0-2-1.56,7.62,7.62,0,0,0-2.71-.45,5.25,5.25,0,0,0-3.84,1.38,4.26,4.26,0,0,0-1.41,3.12l.11,2.34a4.19,4.19,0,0,1-.87,2.85,3,3,0,0,1-2.35,1,2.9,2.9,0,0,1-2.31-1.05,4.23,4.23,0,0,1-.9-2.85,7.27,7.27,0,0,1,.84-3.33,9.37,9.37,0,0,1,2.49-3,13,13,0,0,1,4-2.13,18.87,18.87,0,0,1,12.19.45,7.69,7.69,0,0,1,4,4.32q.67,1.74.68,7.08V274c0,2.12,0,3.75.08,4.88a12.27,12.27,0,0,0,.31,2.49q.23.78.57.93a2.07,2.07,0,0,0,.84.15,2.21,2.21,0,0,0,.74-.12,3,3,0,0,0,.79-.48,10,10,0,0,0,1-1l1.56-1.65v2.28q-4.25,6-8.08,6a3.64,3.64,0,0,1-2.93-1.35C187,285.28,186.58,283.73,186.58,281.53Zm0-2.64v-14q-3.95,1.68-9,4.32a7.33,7.33,0,0,0-2.91,2.88,8.37,8.37,0,0,0-1,4.14,7.62,7.62,0,0,0,.45,2.66,7.31,7.31,0,0,0,1.19,2.13A5.4,5.4,0,0,0,177,282.4a4.42,4.42,0,0,0,2.06.51Q181.9,282.91,186.58,278.89Z" transform="translate(-38.24 -105.6)"/><path class="cls-1" d="M210.79,256.35q5.15-7.44,10.84-7.43a10.75,10.75,0,0,1,5,1.25,13,13,0,0,1,4.26,3.6,18.67,18.67,0,0,1,2.94,5.7A24.31,24.31,0,0,1,235,267a22.9,22.9,0,0,1-1.47,8.31,21.84,21.84,0,0,1-3.95,6.62,18.55,18.55,0,0,1-5.7,4.41,15.1,15.1,0,0,1-6.77,1.59q-5.92,0-12.53-4.68V245.14c0-2.52-.05-4.47-.14-5.85a15.7,15.7,0,0,0-.43-3c-.19-.63-.46-1-.81-1.14a4.08,4.08,0,0,0-1.28-.18,6.72,6.72,0,0,0-2.65.66l-.51-1.43,10.39-4.5h1.69Zm0,2.58v22c2.64,2.72,5.36,4.08,8.19,4.08a6.52,6.52,0,0,0,3.38-1,9.68,9.68,0,0,0,3-3,17.45,17.45,0,0,0,2.17-4.91,24.35,24.35,0,0,0,.85-6.78,21.67,21.67,0,0,0-.82-6.23,14.59,14.59,0,0,0-2.2-4.62,10.21,10.21,0,0,0-3.13-2.85,7.25,7.25,0,0,0-3.61-1,8.31,8.31,0,0,0-1.75.18,7.78,7.78,0,0,0-1.78.63,10,10,0,0,0-2,1.32Q212.1,257.61,210.79,258.93Z" transform="translate(-38.24 -105.6)"/><path class="cls-1" d="M251.94,229.67v48.8a22.89,22.89,0,0,0,.25,3.9,4.06,4.06,0,0,0,.9,2.07,2.69,2.69,0,0,0,1.72.81,25.23,25.23,0,0,0,2.71.12v1.44h-17v-1.44a10.88,10.88,0,0,0,2.71-.27,2.64,2.64,0,0,0,1.56-1.05,4.86,4.86,0,0,0,.7-2.13,29.26,29.26,0,0,0,.17-3.45V245.08c0-2.52,0-4.47-.14-5.85a14.64,14.64,0,0,0-.45-3c-.21-.64-.48-1-.82-1.11a4.83,4.83,0,0,0-1.24-.15,6.17,6.17,0,0,0-2.49.66l-.62-1.43,10.33-4.5Z" transform="translate(-38.24 -105.6)"/><path class="cls-1" d="M267.34,263.84a23.91,23.91,0,0,0,1.05,7.38,18.29,18.29,0,0,0,2.76,5.52,12.06,12.06,0,0,0,4,3.47,10.21,10.21,0,0,0,4.82,1.2,9.24,9.24,0,0,0,5.9-2q2.52-2,4.21-6.83l1.18.78a19.58,19.58,0,0,1-1.58,5.31,18.81,18.81,0,0,1-3,4.67,14.63,14.63,0,0,1-4.26,3.33,11.32,11.32,0,0,1-5.3,1.26,13.08,13.08,0,0,1-5.85-1.35,14.53,14.53,0,0,1-4.79-3.84,19.05,19.05,0,0,1-3.28-6,24,24,0,0,1-1.21-7.89,26.54,26.54,0,0,1,1.24-8.45,19.34,19.34,0,0,1,3.39-6.3,14.08,14.08,0,0,1,5.05-3.9,15.21,15.21,0,0,1,6.29-1.31,13.41,13.41,0,0,1,5.31,1,12.08,12.08,0,0,1,4.2,3,14.13,14.13,0,0,1,2.8,4.71,17.94,17.94,0,0,1,1,6.17Zm0-2.27h16q-.28-5.1-2.28-7.47a6.53,6.53,0,0,0-5.23-2.37,7.25,7.25,0,0,0-3,.66,8,8,0,0,0-2.62,1.92,11,11,0,0,0-1.95,3.09A12.89,12.89,0,0,0,267.34,261.57Z" transform="translate(-38.24 -105.6)"/><path class="cls-1" d="M205.64,105.6v0c.25,0,1.85.28,2.11.32,2.48.32,4,2,3.55,4.92-.75,4.5-6.85,5.31-7.07,5.28-60.29,5-106.84,27.52-123,65.21C52,249.6,133.47,341.67,263.24,387s258.69,26.75,287.94-41.5c19-44.36-8.77-98.77-66.17-143.88a5,5,0,0,1-2.32-7.42,4.88,4.88,0,0,1,6.84-1.19,5.9,5.9,0,0,1,.46.39l.08,0c75.12,53.15,113.21,120.12,90.15,173.9-33.12,77.26-179.8,98-327.61,46.41S11.82,257.55,44.94,180.28C65,133.38,127,107.31,205.64,105.6Z" transform="translate(-38.24 -105.6)"/><polygon class="cls-1" points="452.38 112.85 444.01 88.11 467.25 87.64 432.37 64.34 401.49 46.27 367.33 29.18 394.06 58.88 420.34 84.73 452.38 112.85"/></svg>