<svg id="Capa_1" data-name="Capa 1" xmlns="http://www.w3.org/2000/svg" viewBox="0 0 548.67 336.45"><defs><style>.cls-1{fill:#5cc3df;}</style></defs><title>cableUnetIcon</title><path class="cls-1" d="M490.33,193.55l15.16-.31-34.88-23.3-30.87-18.07-34.17-17.09,26.73,29.7,26.28,25.85,32,28.12-5.7-16.88.09.05c57.4,45.11,85.19,99.52,66.17,143.88C521.93,413.75,393,432.33,263.24,387S52,249.6,81.25,181.35c16.15-37.69,62.7-60.21,123-65.21.22,0,6.32-.78,7.07-5.28.49-2.94-1.07-4.6-3.55-4.92-.26,0-1.86-.35-2.11-.32v0C127,107.31,65,133.38,44.94,180.28,11.82,257.55,104.8,362,252.61,413.67s294.49,30.85,327.61-46.41C603.25,313.54,565.27,246.67,490.33,193.55Z" transform="translate(-38.24 -105.6)"/></svg>